<svg width="95" height="94" viewBox="0 0 95 94" fill="none" xmlns="http://www.w3.org/2000/svg">
<path d="M37.0546 80.1559L36.6422 81.3168L35.7225 80.9902C35.3406 80.8545 35.0424 80.8335 34.828 80.9272C34.6136 81.0208 34.4386 81.2586 34.303 81.6406L31.6309 89.1641L33.4854 89.8228L33.0998 90.9084L31.2453 90.2497L30.8223 91.4408C30.5474 92.2148 30.1633 92.7066 29.67 92.9163C29.1767 93.1259 28.5532 93.0969 27.7993 92.8291L26.0051 92.1919L26.4121 91.046L28.1309 91.6565C28.5028 91.7886 28.8027 91.8046 29.0307 91.7044C29.2451 91.6108 29.4201 91.373 29.5558 90.991L29.9788 89.7999L27.2046 88.8146L27.5901 87.729L30.3644 88.7143L33.0365 81.1908C33.3114 80.4168 33.6954 79.925 34.1887 79.7153C34.682 79.5057 35.3006 79.5329 36.0444 79.7971L37.0546 80.1559Z" fill="white"/>
<path d="M25.3125 78.1619C26.1129 78.6918 26.5588 79.3324 26.6499 80.0835C26.7411 80.8346 26.4864 81.6638 25.8858 82.571L23.2538 86.5468L22.1332 85.8049L24.6768 81.9626C25.0654 81.3755 25.2427 80.8277 25.2085 80.3189C25.1595 79.8132 24.8682 79.3837 24.3345 79.0304C23.8009 78.6771 23.234 78.5576 22.6338 78.672C22.0277 78.7952 21.5009 79.1949 21.0534 79.8708L18.6511 83.4997L17.5304 82.7578L21.9111 76.1404L22.845 76.7587L22.3027 77.8388L22.3694 77.8829C22.7593 77.6805 23.222 77.5903 23.7575 77.6122C24.2872 77.643 24.8055 77.8263 25.3125 78.1619Z" fill="white"/>
<path d="M20.4567 74.5182L19.6079 75.2971L17.7797 73.3049L11.2843 79.2658C11.0878 79.4461 11.0797 79.6345 11.26 79.8309L12.6231 81.3163L11.7744 82.0952L10.1949 80.3741C9.88479 80.0361 9.73716 79.6939 9.75204 79.3472C9.76691 79.0006 9.94331 78.6722 10.2812 78.3621L16.8709 72.3147L15.0426 70.3224L15.8914 69.5435L20.4567 74.5182Z" fill="white"/>
<path d="M14.7087 67.4416L13.6972 67.9929L12.4032 65.6187L4.66224 69.8376C4.42809 69.9652 4.37482 70.1461 4.50244 70.3803L5.4672 72.1504L4.45568 72.7017L3.33777 70.6506C3.11828 70.2478 3.05753 69.8801 3.15555 69.5472C3.25356 69.2144 3.50393 68.9383 3.90667 68.7188L11.76 64.4386L10.466 62.0643L11.4775 61.513L14.7087 67.4416Z" fill="white"/>
<path d="M9.21636 46.5622C9.22851 47.5754 9.00372 48.3995 8.54197 49.0344C8.06942 49.6588 7.41763 50.0133 6.58658 50.098L6.56989 48.7061C7.00642 48.6368 7.36117 48.4192 7.63413 48.0532C7.90697 47.6766 8.03961 47.1737 8.03206 46.5444C8.02489 45.9471 7.89159 45.506 7.63216 45.2211C7.37259 44.9255 7.07749 44.7797 6.74685 44.7837C6.29888 44.789 5.99701 44.9687 5.84125 45.3226C5.67481 45.6766 5.55316 46.2061 5.47627 46.9111C5.39039 47.7548 5.16945 48.4562 4.81347 49.0152C4.45748 49.5741 3.91685 49.858 3.19156 49.8667C2.54094 49.8745 1.99905 49.609 1.56589 49.0701C1.13273 48.5313 0.91052 47.7925 0.89926 46.854C0.888128 45.926 1.09268 45.1928 1.51292 44.6544C1.92249 44.1161 2.51614 43.805 3.29385 43.721L3.30978 45.0489C2.92619 45.0855 2.62445 45.2758 2.40456 45.6198C2.17388 45.9533 2.06155 46.3706 2.06756 46.8719C2.07383 47.3946 2.18002 47.7987 2.38612 48.0842C2.58157 48.3699 2.83927 48.5108 3.15925 48.507C3.47923 48.5031 3.74396 48.3399 3.95344 48.0174C4.15212 47.6843 4.27924 47.1654 4.33479 46.4607C4.39213 45.9053 4.49271 45.3974 4.63653 44.937C4.78035 44.4766 5.01065 44.1111 5.32743 43.8406C5.64408 43.5595 6.09039 43.4154 6.66635 43.4085C7.14618 43.3921 7.57975 43.5202 7.96705 43.7929C8.34356 44.0551 8.64668 44.4248 8.87642 44.9021C9.0955 45.3795 9.20881 45.9329 9.21636 46.5622Z" fill="white"/>
<path d="M10.5261 36.8242C10.3596 37.5302 10.0574 38.0453 9.61933 38.3694C9.18127 38.6936 8.51582 38.7504 7.62296 38.5399L3.38706 37.5413L2.92449 39.5036L1.80323 39.2392L2.07857 38.0713C2.20339 37.5418 2.01603 37.1743 1.51651 36.9689L0.368774 36.4682L0.596387 35.5026L2.57418 35.9689L3.30107 32.8854L4.42233 33.1497L3.69544 36.2332L7.93133 37.2318C8.36738 37.3346 8.6969 37.3081 8.9199 37.1525C9.14535 36.9864 9.31681 36.6542 9.43428 36.1559L9.84178 34.4273L11.0253 34.7063L10.5261 36.8242Z" fill="white"/>
<path d="M13.6422 29.8907C13.3544 30.4503 13.0157 30.8639 12.6263 31.1314C12.2368 31.3989 11.8345 31.5398 11.4193 31.5542C10.9946 31.5637 10.5878 31.4684 10.1989 31.2684C9.47795 30.8976 9.06668 30.3562 8.96505 29.6443C8.85881 28.9179 9.03254 28.1137 9.48624 27.2315L10.4814 25.2964L10.3392 25.2232C9.10601 24.589 8.19917 24.8364 7.61864 25.9651C7.38448 26.4205 7.2865 26.8559 7.32471 27.2713C7.3678 27.6773 7.58082 28.0328 7.96377 28.3377L7.33445 29.5613C6.88456 29.27 6.55717 28.9037 6.35228 28.4625C6.15227 28.0118 6.07191 27.5266 6.11121 27.0071C6.15052 26.4875 6.30676 25.9622 6.57996 25.431C7.09707 24.4255 7.73831 23.8317 8.50367 23.6496C9.26443 23.4531 10.0812 23.5792 10.9538 24.028L15.2935 26.2599L14.7667 27.2844L13.6199 26.8205L13.5686 26.9201C13.8028 27.3044 13.9577 27.7379 14.0333 28.2206C14.1043 28.689 13.9739 29.2456 13.6422 29.8907ZM12.699 29.1357C12.9332 28.6804 13.0217 28.2401 12.9645 27.8149C12.9122 27.3802 12.7473 26.9895 12.4698 26.6429C12.1971 26.2867 11.8474 25.9989 11.4205 25.7794L10.4765 27.6149C10.1448 28.2599 10.0197 28.7713 10.1013 29.1491C10.1878 29.5174 10.4112 29.7943 10.7717 29.9797C11.1416 30.1699 11.4944 30.1954 11.8299 30.0561C12.1654 29.9168 12.4551 29.61 12.699 29.1357Z" fill="white"/>
<path d="M19.3819 21.8854C18.9115 22.4234 18.3657 22.7964 17.7446 23.0043C17.1306 23.2041 16.4819 23.2249 15.7985 23.0666C15.1071 22.9012 14.4362 22.5342 13.7858 21.9654C13.1354 21.3967 12.6861 20.7842 12.4381 20.128C12.182 19.4648 12.1156 18.8116 12.2388 18.1684C12.3691 17.5171 12.6624 16.9305 13.1188 16.4086C13.7648 15.6699 14.4656 15.2412 15.2211 15.1225C15.9767 15.0039 16.7162 15.1547 17.4398 15.5749L16.534 16.6107C16.1206 16.4192 15.6981 16.3757 15.2667 16.4802C14.8272 16.5776 14.4249 16.8352 14.0598 17.2527C13.793 17.5578 13.6205 17.9171 13.5423 18.3305C13.4642 18.744 13.512 19.1754 13.6857 19.6249C13.8595 20.0744 14.1912 20.5133 14.681 20.9416C15.1708 21.37 15.6541 21.6437 16.1307 21.763C16.5994 21.8752 17.0334 21.8651 17.4327 21.7325C17.832 21.5999 18.1651 21.3811 18.4319 21.076C18.8181 20.6343 19.0232 20.1973 19.0471 19.7648C19.0781 19.3243 18.9711 18.9119 18.7261 18.5276L19.6319 17.4918C20.1329 18.1991 20.3674 18.9355 20.3355 19.7012C20.3107 20.4588 19.9928 21.1869 19.3819 21.8854Z" fill="white"/>
<path d="M23.6602 17.7474L17.0724 8.29696L18.175 7.52838L22.1459 13.2249L22.9415 8.57454L24.346 7.59553L23.4673 12.5184L23.5222 12.5971L29.2386 13.8588L27.8735 14.8104L22.4021 13.5924L24.7627 16.9789L23.6602 17.7474Z" fill="white"/>
<path d="M40.4421 10.4916L37.7312 2.82811L39.0494 2.66683L40.8979 8.42091L41.5269 2.36368L43.0198 2.18102L45.0907 7.9079L45.4973 1.87787L46.8314 1.71464L46.0324 9.80759L44.6665 9.97471L42.4891 4.0352L41.8079 10.3245L40.4421 10.4916Z" fill="white"/>
<path d="M52.3929 10.6649C51.6518 10.5742 51.0161 10.3245 50.4858 9.91571C49.9674 9.49765 49.5817 8.9615 49.3286 8.30725C49.0768 7.64242 49.0014 6.89708 49.1025 6.07124C49.2035 5.2454 49.4504 4.54487 49.8432 3.96965C50.2479 3.38513 50.7568 2.95845 51.37 2.6896C51.9845 2.41016 52.6729 2.31708 53.4352 2.41036C54.1975 2.50363 54.8273 2.758 55.3245 3.17347C55.823 3.57834 56.1809 4.07885 56.3981 4.67497C56.6153 5.2711 56.6844 5.89209 56.6054 6.53794C56.5911 6.6544 56.5716 6.77022 56.5467 6.88539C56.5325 7.00185 56.5163 7.1342 56.4981 7.28243L50.3837 6.53428C50.3443 7.12049 50.417 7.62372 50.602 8.04396C50.7989 8.45492 51.0657 8.77771 51.4023 9.01233C51.7496 9.24825 52.1296 9.39148 52.5426 9.442C53.1249 9.51325 53.5951 9.4472 53.9531 9.24384C54.3111 9.04049 54.6014 8.73212 54.8239 8.31876L56.142 8.48005C55.8727 9.18857 55.421 9.76197 54.7871 10.2002C54.1545 10.6279 53.3564 10.7828 52.3929 10.6649ZM53.2577 3.59759C52.6436 3.52245 52.081 3.64166 51.5698 3.95523C51.0691 4.2701 50.7251 4.75456 50.5376 5.40863L55.3338 5.99549C55.3718 5.33387 55.1964 4.79122 54.8076 4.36754C54.4308 3.93456 53.9141 3.67791 53.2577 3.59759Z" fill="white"/>
<path d="M61.2776 13.2407C60.7098 13.0235 60.2704 12.7242 59.9595 12.3426C59.6624 11.9549 59.4973 11.5206 59.4642 11.0397L59.3745 11.0055L58.8057 12.0898L57.7745 11.6955L61.8893 0.935425L63.1447 1.41549L61.4587 5.82412C61.7738 5.56773 62.1782 5.3912 62.6719 5.29453C63.1757 5.20166 63.7015 5.26001 64.2495 5.46956C64.8871 5.7134 65.3929 6.07812 65.7668 6.5637C66.1406 7.04928 66.3566 7.63434 66.4146 8.31887C66.4725 9.00341 66.3434 9.75914 66.0272 10.5861C65.7071 11.423 65.2952 12.082 64.7915 12.5631C64.2915 13.0343 63.7353 13.3241 63.1229 13.4325C62.5204 13.5446 61.9053 13.4807 61.2776 13.2407ZM61.5705 11.9823C62.1981 12.2223 62.795 12.1993 63.3612 11.9134C63.9411 11.6212 64.4045 11.0219 64.7512 10.1152C65.0979 9.2086 65.1508 8.45799 64.91 7.86341C64.6829 7.26267 64.2556 6.84229 63.6279 6.60225C63.0002 6.36222 62.3964 6.38827 61.8165 6.68039C61.2404 6.96255 60.7789 7.55695 60.4322 8.46358C60.0855 9.37021 60.0307 10.1258 60.2677 10.7303C60.5085 11.3249 60.9428 11.7422 61.5705 11.9823Z" fill="white"/>
<path d="M75.2304 23.7292C74.788 23.2233 74.5117 22.6643 74.4016 22.0522C74.2984 21.4481 74.3814 20.83 74.6505 20.1979C74.9276 19.5588 75.4034 18.9443 76.0779 18.3545C76.7444 17.7717 77.4088 17.3891 78.0711 17.2067C78.7334 17.0243 79.3571 17.0245 79.942 17.2073C80.534 17.3981 81.0511 17.7464 81.4935 18.2523C81.9078 18.7261 82.156 19.1962 82.2381 19.6629C82.3273 20.1375 82.29 20.581 82.1263 20.9934L85.6795 17.8863L86.5642 18.8981L77.8922 26.4814L77.1654 25.6503L77.9981 24.7309L77.9349 24.6587C77.4652 24.786 76.9971 24.7773 76.5306 24.6326C76.064 24.488 75.6306 24.1868 75.2304 23.7292ZM76.3098 23.0191C76.7522 23.5249 77.2939 23.788 77.9351 23.8083C78.5843 23.8215 79.2743 23.5086 80.005 22.8697C80.7357 22.2307 81.1338 21.5921 81.1992 20.954C81.2726 20.3088 81.0882 19.7333 80.6458 19.2274C80.2034 18.7215 79.6577 18.462 79.0084 18.4487C78.3743 18.4365 77.6918 18.7499 76.9611 19.3888C76.2304 20.0278 75.8249 20.6658 75.7444 21.303C75.679 21.9412 75.8674 22.5132 76.3098 23.0191Z" fill="white"/>
<path d="M80.2731 31.6703C79.9316 31.0063 79.7809 30.3401 79.821 29.6718C79.8755 29.008 80.1022 28.3877 80.5011 27.8107C80.9095 27.2288 81.4837 26.7476 82.2236 26.3671C82.9635 25.9865 83.6817 25.7971 84.3782 25.7987C85.0891 25.8049 85.728 25.9861 86.295 26.3422C86.8715 26.6935 87.3353 27.2106 87.6866 27.8936C88.0378 28.5765 88.1813 29.2404 88.1171 29.8851C88.0624 30.525 87.8495 31.1023 87.4784 31.617C87.1074 32.1316 86.6326 32.5378 86.054 32.8354C85.9496 32.889 85.8428 32.9379 85.7336 32.9821C85.6293 33.0358 85.5107 33.0968 85.3779 33.1651L82.5606 27.6871C82.0535 27.9838 81.6782 28.3268 81.4345 28.716C81.2052 29.1098 81.0882 29.5119 81.0833 29.9222C81.0833 30.342 81.1784 30.7369 81.3687 31.1068C81.637 31.6285 81.9559 31.9803 82.3253 32.1622C82.6947 32.344 83.1128 32.4108 83.5798 32.3626L84.1872 33.5436C83.4497 33.7189 82.7216 33.6676 82.0029 33.3895C81.2936 33.1065 80.717 32.5335 80.2731 31.6703ZM86.6048 28.4139C86.3218 27.8638 85.907 27.4654 85.3604 27.2187C84.8186 26.9816 84.2245 26.9693 83.5782 27.1817L85.7881 31.4788C86.3567 31.1384 86.707 30.6883 86.839 30.1287C86.9853 29.5736 86.9073 29.002 86.6048 28.4139Z" fill="white"/>
<path d="M83.08 39.395L90.004 34.1791L90.3564 35.6742L84.6926 39.8203L91.6156 41.0158L91.9644 42.4952L83.4361 40.9056L83.08 39.395Z" fill="white"/>
<path d="M83.7506 49.3152C83.7596 48.5686 83.9382 47.9093 84.2864 47.3375C84.6451 46.7764 85.1358 46.3342 85.7584 46.011C86.3917 45.6879 87.1243 45.5314 87.9562 45.5414C88.7881 45.5513 89.5115 45.72 90.1263 46.0474C90.7516 46.3856 91.2315 46.8447 91.5659 47.4248C91.9109 48.005 92.0789 48.679 92.0696 49.447C92.0604 50.2149 91.8766 50.8688 91.5181 51.4085C91.1702 51.9484 90.7119 52.3589 90.1432 52.6401C89.5744 52.9213 88.9648 53.058 88.3141 53.0502C88.1968 53.0488 88.0796 53.042 87.9624 53.03C87.845 53.0286 87.7117 53.027 87.5624 53.0252L87.6363 46.8656C87.0493 46.8906 86.557 47.018 86.1596 47.2479C85.7727 47.4886 85.4811 47.7892 85.2847 48.1495C85.0882 48.5205 84.9875 48.914 84.9825 49.33C84.9755 49.9166 85.0927 50.3767 85.334 50.7103C85.5753 51.0439 85.9137 51.2986 86.3489 51.4745L86.333 52.8024C85.5992 52.6123 84.9798 52.2261 84.4747 51.644C83.9804 51.0621 83.739 50.2858 83.7506 49.3152ZM90.8701 49.4006C90.8775 48.782 90.6974 48.2358 90.3297 47.762C89.9619 47.2989 89.4427 47.01 88.772 46.8952L88.7141 51.7269C89.3758 51.6922 89.896 51.4584 90.2746 51.0256C90.6637 50.6035 90.8622 50.0619 90.8701 49.4006Z" fill="white"/>
<path d="M83.3278 54.7308L84.4424 55.0219L83.759 57.6381L92.2888 59.8662C92.5468 59.9336 92.7095 59.8383 92.7769 59.5803L93.2864 57.6297L94.401 57.9209L93.8107 60.181C93.6947 60.6248 93.4871 60.9344 93.1877 61.1097C92.8883 61.2851 92.5168 61.3148 92.073 61.1989L83.4193 58.9385L82.736 61.5547L81.6214 61.2636L83.3278 54.7308Z" fill="white"/>
<path d="M78.6045 66.4657C78.9619 65.8101 79.4282 65.3111 80.0036 64.9687C80.5789 64.6263 81.2173 64.4579 81.9188 64.4637C82.6296 64.4745 83.355 64.6815 84.0949 65.0848C84.8348 65.488 85.3973 65.9829 85.7822 66.5693C86.1766 67.1608 86.3858 67.7911 86.4099 68.4602C86.4339 69.1293 86.2673 69.7917 85.91 70.4473C85.5527 71.1029 85.0863 71.602 84.511 71.9444C83.9356 72.2868 83.2925 72.4526 82.5817 72.4417C81.8802 72.436 81.1595 72.2315 80.4196 71.8283C79.6797 71.425 79.1126 70.9276 78.7182 70.3361C78.3332 69.7497 78.1287 69.1219 78.1046 68.4528C78.0806 67.7837 78.2472 67.1214 78.6045 66.4657ZM79.7284 67.0783C79.5089 67.481 79.3988 67.8948 79.3981 68.3196C79.3974 68.7444 79.5334 69.1525 79.8059 69.544C80.0733 69.9449 80.4974 70.3036 81.0781 70.6201C81.6588 70.9365 82.19 71.0985 82.6719 71.106C83.1486 71.1229 83.5653 71.0159 83.9219 70.7851C84.2785 70.5543 84.5666 70.2375 84.7861 69.8348C85.0005 69.4414 85.108 69.0323 85.1087 68.6075C85.1094 68.1827 84.9761 67.7699 84.7086 67.369C84.4412 66.9682 84.0171 66.6095 83.4364 66.293C82.5654 65.8183 81.809 65.6793 81.1672 65.8762C80.5347 66.0782 80.0551 66.4789 79.7284 67.0783Z" fill="white"/>
<path d="M73.0323 68.7794L81.4727 76.5253L80.7371 77.3269L79.6623 76.5577L79.5974 76.6284C79.7747 77.0662 79.818 77.5475 79.7273 78.0723C79.6365 78.5971 79.3856 79.0835 78.9745 79.5315C78.5418 80.003 78.0345 80.3192 77.4525 80.4801C76.8634 80.6488 76.236 80.6304 75.5703 80.4249C74.9126 80.2267 74.2536 79.8246 73.5935 79.2188C72.9412 78.6202 72.4917 77.9978 72.2451 77.3516C71.9912 76.7132 71.9267 76.0894 72.0515 75.4801C72.1692 74.8786 72.4588 74.3264 72.9203 73.8234C73.3314 73.3755 73.7755 73.0809 74.2526 72.9396C74.7304 72.8134 75.1602 72.8025 75.5422 72.9069L72.1236 69.7696L73.0323 68.7794ZM73.9716 74.571C73.5172 75.0661 73.3151 75.6335 73.3652 76.273C73.4231 76.9198 73.8097 77.5713 74.5248 78.2276C75.24 78.8839 75.9183 79.2097 76.5598 79.2048C77.2092 79.2071 77.761 78.9607 78.2154 78.4656C78.6698 77.9705 78.868 77.3996 78.81 76.7528C78.7599 76.1132 78.3773 75.4653 77.6621 74.809C76.947 74.1527 76.2647 73.8234 75.6154 73.821C74.9739 73.8259 74.426 74.0759 73.9716 74.571Z" fill="white"/>
<path d="M65.9255 79.3284C66.5481 78.9163 67.1937 78.6935 67.8624 78.6602C68.5281 78.6416 69.1696 78.799 69.7868 79.1323C70.41 79.4746 70.9512 79.9926 71.4104 80.6863C71.8697 81.3801 72.1367 82.0732 72.2114 82.7657C72.2831 83.473 72.173 84.1279 71.8811 84.7305C71.5951 85.342 71.1319 85.8597 70.4915 86.2836C69.8512 86.7076 69.207 86.9229 68.5591 86.9297C67.9171 86.9454 67.3199 86.797 66.7677 86.4846C66.2155 86.1722 65.7598 85.7447 65.4006 85.2022C65.3359 85.1043 65.2755 85.0035 65.2197 84.8998C65.1549 84.802 65.0813 84.6908 64.9989 84.5663L70.1353 81.1659C69.7848 80.6944 69.4027 80.3588 68.9892 80.1593C68.5727 79.9745 68.1602 79.9022 67.7518 79.9423C67.3345 79.9883 66.9524 80.1261 66.6056 80.3557C66.1164 80.6796 65.8016 81.035 65.6613 81.4221C65.5211 81.8092 65.5005 82.2322 65.5996 82.6911L64.4922 83.4242C64.2371 82.7104 64.2084 81.981 64.4061 81.2361C64.6096 80.5002 65.1161 79.8642 65.9255 79.3284ZM69.8558 85.2654C70.3717 84.9238 70.7222 84.4679 70.9075 83.8975C71.0839 83.333 71.031 82.7412 70.749 82.122L66.7199 84.7893C67.1206 85.3172 67.6063 85.6161 68.177 85.6859C68.7448 85.7706 69.3044 85.6304 69.8558 85.2654Z" fill="white"/>
<path d="M61.0727 82.0703L61.4583 83.1559L59.5434 83.8359L61.2945 88.7662C61.3837 89.0175 61.549 89.1003 61.7902 89.0146L63.1472 88.5327L63.5327 89.6183L61.7084 90.2662C61.3767 90.384 61.0782 90.3881 60.8129 90.2786C60.5476 90.1691 60.3525 89.9384 60.2275 89.5866L60.1151 89.27L60.0548 89.2914C60.1127 89.8368 60.0239 90.3041 59.7886 90.6933C59.5433 91.0861 59.119 91.3896 58.5159 91.6038L57.1439 92.0911L56.6673 90.7492L58.2203 90.1976C58.8334 89.9799 59.2327 89.606 59.418 89.0761C59.6069 88.5562 59.5889 87.9797 59.364 87.3464L58.2769 84.2858L55.9249 85.1211L55.5393 84.0356L61.0727 82.0703Z" fill="white"/>
</svg>
